<svg width="18" height="17" viewBox="0 0 18 17" fill="none" xmlns="http://www.w3.org/2000/svg">
<path d="M16.3333 4.41837H12.8333V4.2551C12.8333 3.25919 12.4295 2.30406 11.7106 1.59984C10.9917 0.895626 10.0167 0.5 9 0.5C7.98334 0.5 7.00831 0.895626 6.28942 1.59984C5.57053 2.30406 5.16667 3.25919 5.16667 4.2551V4.41837H1.66667C1.35725 4.41837 1.0605 4.53877 0.841709 4.7531C0.622916 4.96743 0.5 5.25812 0.5 5.56122V15.3571C0.5 15.6602 0.622916 15.9509 0.841709 16.1653C1.0605 16.3796 1.35725 16.5 1.66667 16.5H16.3333C16.6428 16.5 16.9395 16.3796 17.1583 16.1653C17.3771 15.9509 17.5 15.6602 17.5 15.3571V5.56122C17.5 5.25812 17.3771 4.96743 17.1583 4.7531C16.9395 4.53877 16.6428 4.41837 16.3333 4.41837ZM6.16667 4.2551C6.16667 3.51899 6.46518 2.81303 6.99653 2.29252C7.52788 1.77201 8.24855 1.47959 9 1.47959C9.75145 1.47959 10.4721 1.77201 11.0035 2.29252C11.5348 2.81303 11.8333 3.51899 11.8333 4.2551V4.41837H6.16667V4.2551ZM16.5 15.3571C16.5 15.4004 16.4824 15.442 16.4512 15.4726C16.4199 15.5032 16.3775 15.5204 16.3333 15.5204H1.66667C1.62246 15.5204 1.58007 15.5032 1.54882 15.4726C1.51756 15.442 1.5 15.4004 1.5 15.3571V5.56122C1.5 5.51792 1.51756 5.4764 1.54882 5.44578C1.58007 5.41516 1.62246 5.39796 1.66667 5.39796H5.16667V6.86735C5.16667 6.99725 5.21935 7.12183 5.31311 7.21368C5.40688 7.30554 5.53406 7.35714 5.66667 7.35714C5.79928 7.35714 5.92645 7.30554 6.02022 7.21368C6.11399 7.12183 6.16667 6.99725 6.16667 6.86735V5.39796H11.8333V6.86735C11.8333 6.99725 11.886 7.12183 11.9798 7.21368C12.0735 7.30554 12.2007 7.35714 12.3333 7.35714C12.4659 7.35714 12.5931 7.30554 12.6869 7.21368C12.7807 7.12183 12.8333 6.99725 12.8333 6.86735V5.39796H16.3333C16.3775 5.39796 16.4199 5.41516 16.4512 5.44578C16.4824 5.4764 16.5 5.51792 16.5 5.56122V15.3571Z" fill="white"/>
</svg>
