<svg width="17" height="16" viewBox="0 0 17 16" fill="none" xmlns="http://www.w3.org/2000/svg">
<path id="Bag white" d="M15.8333 3.91837H12.3333V3.7551C12.3333 2.75919 11.9295 1.80406 11.2106 1.09984C10.4917 0.395626 9.51666 0 8.5 0C7.48334 0 6.50831 0.395626 5.78942 1.09984C5.07053 1.80406 4.66667 2.75919 4.66667 3.7551V3.91837H1.16667C0.857247 3.91837 0.560501 4.03877 0.341709 4.2531C0.122916 4.46743 0 4.75812 0 5.06122V14.8571C0 15.1602 0.122916 15.4509 0.341709 15.6653C0.560501 15.8796 0.857247 16 1.16667 16H15.8333C16.1428 16 16.4395 15.8796 16.6583 15.6653C16.8771 15.4509 17 15.1602 17 14.8571V5.06122C17 4.75812 16.8771 4.46743 16.6583 4.2531C16.4395 4.03877 16.1428 3.91837 15.8333 3.91837ZM5.66667 3.7551C5.66667 3.01899 5.96518 2.31303 6.49653 1.79252C7.02788 1.27201 7.74855 0.979592 8.5 0.979592C9.25145 0.979592 9.97212 1.27201 10.5035 1.79252C11.0348 2.31303 11.3333 3.01899 11.3333 3.7551V3.91837H5.66667V3.7551ZM16 14.8571C16 14.9004 15.9824 14.942 15.9512 14.9726C15.9199 15.0032 15.8775 15.0204 15.8333 15.0204H1.16667C1.12246 15.0204 1.08007 15.0032 1.04882 14.9726C1.01756 14.942 1 14.9004 1 14.8571V5.06122C1 5.01792 1.01756 4.9764 1.04882 4.94578C1.08007 4.91516 1.12246 4.89796 1.16667 4.89796H4.66667V6.36735C4.66667 6.49725 4.71935 6.62183 4.81311 6.71368C4.90688 6.80554 5.03406 6.85714 5.16667 6.85714C5.29927 6.85714 5.42645 6.80554 5.52022 6.71368C5.61399 6.62183 5.66667 6.49725 5.66667 6.36735V4.89796H11.3333V6.36735C11.3333 6.49725 11.386 6.62183 11.4798 6.71368C11.5735 6.80554 11.7007 6.85714 11.8333 6.85714C11.9659 6.85714 12.0931 6.80554 12.1869 6.71368C12.2807 6.62183 12.3333 6.49725 12.3333 6.36735V4.89796H15.8333C15.8775 4.89796 15.9199 4.91516 15.9512 4.94578C15.9824 4.9764 16 5.01792 16 5.06122V14.8571Z" fill="#103FE3"/>
</svg>
