<svg width="24" height="18" viewBox="0 0 24 18" fill="none" xmlns="http://www.w3.org/2000/svg">
<path d="M20.16 7.8976C20.3137 7.49635 20.4 7.0576 20.4 6.6001C20.4 4.6126 18.7875 3.0001 16.8 3.0001C16.0613 3.0001 15.3713 3.2251 14.8013 3.6076C13.7625 1.8076 11.8238 0.600098 9.6 0.600098C6.285 0.600098 3.6 3.2851 3.6 6.6001C3.6 6.70135 3.60375 6.8026 3.6075 6.90385C1.5075 7.6426 0 9.6451 0 12.0001C0 14.9813 2.41875 17.4001 5.4 17.4001H19.2C21.8513 17.4001 24 15.2513 24 12.6001C24 10.2788 22.35 8.3401 20.16 7.8976Z" fill="black"/>
<path d="M5.949 15.1321C5.42833 15.1321 4.959 15.0514 4.541 14.8901C4.123 14.7214 3.76733 14.4758 3.474 14.1531C3.18067 13.8231 2.95333 13.4161 2.792 12.9321C2.63067 12.4408 2.55 11.8688 2.55 11.2161C2.55 10.5708 2.63067 9.99876 2.792 9.5001C2.95333 8.9941 3.18067 8.57243 3.474 8.2351C3.76733 7.89043 4.123 7.6301 4.541 7.4541C4.959 7.2781 5.42833 7.1901 5.949 7.1901C6.66033 7.1901 7.247 7.33676 7.709 7.6301C8.171 7.9161 8.54133 8.37076 8.82 8.9941L7.379 9.7421C7.27633 9.41943 7.115 9.16276 6.895 8.9721C6.68233 8.7741 6.367 8.6751 5.949 8.6751C5.45767 8.6751 5.06167 8.83643 4.761 9.1591C4.46767 9.47443 4.321 9.93643 4.321 10.5451V11.7771C4.321 12.3858 4.46767 12.8514 4.761 13.1741C5.06167 13.4894 5.45767 13.6471 5.949 13.6471C6.35967 13.6471 6.686 13.5371 6.928 13.3171C7.17733 13.0898 7.36067 12.8184 7.478 12.5031L8.842 13.2951C8.556 13.8818 8.17833 14.3364 7.709 14.6591C7.247 14.9744 6.66033 15.1321 5.949 15.1321Z" fill="white"/>
<path d="M12.9524 15.1321C12.4464 15.1321 11.9844 15.0478 11.5664 14.8791C11.1484 14.7104 10.7927 14.4611 10.4994 14.1311C10.2061 13.7938 9.97872 13.3794 9.81739 12.8881C9.65606 12.3894 9.57539 11.8138 9.57539 11.1611C9.57539 10.5084 9.65606 9.93643 9.81739 9.4451C9.97872 8.94643 10.2061 8.5321 10.4994 8.2021C10.7927 7.86476 11.1484 7.61176 11.5664 7.4431C11.9844 7.27443 12.4464 7.1901 12.9524 7.1901C13.4584 7.1901 13.9204 7.27443 14.3384 7.4431C14.7564 7.61176 15.1121 7.86476 15.4054 8.2021C15.6987 8.5321 15.9261 8.94643 16.0874 9.4451C16.2487 9.93643 16.3294 10.5084 16.3294 11.1611C16.3294 11.8138 16.2487 12.3894 16.0874 12.8881C15.9261 13.3794 15.6987 13.7938 15.4054 14.1311C15.1121 14.4611 14.7564 14.7104 14.3384 14.8791C13.9204 15.0478 13.4584 15.1321 12.9524 15.1321ZM12.9524 13.6471C13.4584 13.6471 13.8507 13.4821 14.1294 13.1521C14.4154 12.8221 14.5584 12.3491 14.5584 11.7331V10.5891C14.5584 9.9731 14.4154 9.5001 14.1294 9.1701C13.8507 8.8401 13.4584 8.6751 12.9524 8.6751C12.4464 8.6751 12.0504 8.8401 11.7644 9.1701C11.4857 9.5001 11.3464 9.9731 11.3464 10.5891V11.7331C11.3464 12.3491 11.4857 12.8221 11.7644 13.1521C12.0504 13.4821 12.4464 13.6471 12.9524 13.6471Z" fill="white"/>
<path d="M20.4199 15.0001H17.2409V14.0321L18.4399 13.1191C18.5793 13.0164 18.6929 12.9284 18.7809 12.8551C18.8763 12.7744 18.9533 12.7011 19.0119 12.6351C19.0706 12.5618 19.1109 12.4921 19.1329 12.4261C19.1623 12.3601 19.1769 12.2868 19.1769 12.2061V12.1951C19.1769 12.0484 19.1219 11.9494 19.0119 11.8981C18.9093 11.8468 18.8066 11.8211 18.7039 11.8211C18.5206 11.8211 18.3813 11.8724 18.2859 11.9751C18.1979 12.0704 18.1356 12.1841 18.0989 12.3161L17.1199 11.9531C17.2226 11.6451 17.4133 11.3884 17.6919 11.1831C17.9779 10.9778 18.3519 10.8751 18.8139 10.8751C19.3126 10.8751 19.6976 10.9924 19.9689 11.2271C20.2403 11.4618 20.3759 11.7624 20.3759 12.1291C20.3759 12.3198 20.3393 12.4921 20.2659 12.6461C20.1999 12.8001 20.1083 12.9431 19.9909 13.0751C19.8736 13.1998 19.7379 13.3171 19.5839 13.4271C19.4373 13.5371 19.2833 13.6361 19.1219 13.7241L18.4729 14.0871H20.4199V15.0001Z" fill="white"/>
</svg>
