<svg width="24" height="18" viewBox="0 0 24 18" fill="none" xmlns="http://www.w3.org/2000/svg">
<path id="Vector" d="M20.16 7.8976C20.3137 7.49635 20.4 7.0576 20.4 6.6001C20.4 4.6126 18.7875 3.0001 16.8 3.0001C16.0613 3.0001 15.3713 3.2251 14.8013 3.6076C13.7625 1.8076 11.8238 0.600098 9.6 0.600098C6.285 0.600098 3.6 3.2851 3.6 6.6001C3.6 6.70135 3.60375 6.8026 3.6075 6.90385C1.5075 7.6426 0 9.6451 0 12.0001C0 14.9813 2.41875 17.4001 5.4 17.4001H19.2C21.8513 17.4001 24 15.2513 24 12.6001C24 10.2788 22.35 8.3401 20.16 7.8976Z" fill="black"/>
</svg>
