<svg width="24" height="24" viewBox="0 0 24 24" fill="none" xmlns="http://www.w3.org/2000/svg">
<path d="M16.9087 4.95654L21.8612 9.93721C22.8406 10.9216 23.5078 12.1759 23.7782 13.5416C24.0487 14.9074 23.9104 16.3231 23.3807 17.6097C22.851 18.8963 21.9538 19.9961 20.8026 20.7698C19.6513 21.5436 18.2978 21.9565 16.9131 21.9565C15.5284 21.9565 14.1749 21.5436 13.0236 20.7698C11.8724 19.9961 10.9752 18.8963 10.4455 17.6097C9.91581 16.3231 9.77746 14.9074 10.0479 13.5416C10.3184 12.1759 10.9855 10.9216 11.965 9.93721L16.9087 4.95654Z" fill="black"/>
<path d="M3.49781 9.13037L5.97406 11.7672C6.46377 12.2883 6.79735 12.9524 6.93258 13.6754C7.06781 14.3984 6.99864 15.1479 6.7338 15.8291C6.46896 16.5102 6.02036 17.0925 5.44473 17.5021C4.86911 17.9117 4.19233 18.1304 3.5 18.1304C2.80767 18.1304 2.13089 17.9117 1.55527 17.5021C0.979645 17.0925 0.531043 16.5102 0.266204 15.8291C0.00136448 15.1479 -0.0678132 14.3984 0.067421 13.6754C0.202655 12.9524 0.536226 12.2883 1.02594 11.7672L3.49781 9.13037Z" fill="black"/>
<path d="M9.54189 0.782715L11.3106 2.83358C11.6604 3.2389 11.8987 3.7554 11.9953 4.31775C12.0919 4.88011 12.0425 5.46305 11.8533 5.99283C11.6641 6.52262 11.3437 6.97546 10.9326 7.29406C10.5214 7.61266 10.038 7.78272 9.54346 7.78272C9.04893 7.78272 8.56552 7.61266 8.15436 7.29406C7.7432 6.97546 7.42277 6.52262 7.2336 5.99283C7.04443 5.46305 6.99502 4.88011 7.09161 4.31775C7.18821 3.7554 7.42648 3.2389 7.77627 2.83358L9.54189 0.782715Z" fill="black"/>
</svg>
