<svg width="19" height="19" viewBox="0 0 19 19" fill="none" xmlns="http://www.w3.org/2000/svg">
<path fill-rule="evenodd" clip-rule="evenodd" d="M9.474 18.948C11.9867 18.948 14.3964 17.9499 16.1731 16.1731C17.9499 14.3964 18.948 11.9867 18.948 9.474C18.948 6.96134 17.9499 4.55159 16.1731 2.77487C14.3964 0.998151 11.9867 0 9.474 0C6.96134 0 4.55159 0.998151 2.77487 2.77487C0.998151 4.55159 0 6.96134 0 9.474C0 11.9867 0.998151 14.3964 2.77487 16.1731C4.55159 17.9499 6.96134 18.948 9.474 18.948ZM13.27 2.37C13.4007 2.55867 13.524 2.754 13.64 2.956C14.154 3.849 14.56 4.906 14.829 6.072C15.1983 6.16867 15.5467 6.27467 15.874 6.39C16.324 6.55 16.744 6.73 17.117 6.932C16.4638 4.97616 15.0875 3.34407 13.27 2.37ZM17.283 11.45C16.869 11.69 16.393 11.901 15.873 12.084C15.5777 12.1887 15.265 12.2853 14.935 12.374C14.672 13.739 14.227 14.973 13.64 15.992C13.5252 16.1926 13.4017 16.3881 13.27 16.578C14.2585 16.0488 15.1259 15.3194 15.8168 14.4363C16.5078 13.5532 17.0071 12.5368 17.283 11.45ZM5.678 16.577C5.54626 16.3871 5.42281 16.1916 5.308 15.991C4.721 14.971 4.276 13.738 4.013 12.373C3.683 12.2843 3.37 12.1877 3.074 12.083C2.58616 11.915 2.11484 11.7025 1.666 11.448C1.94177 12.5347 2.44094 13.552 3.13171 14.4351C3.82247 15.3182 4.68967 16.0477 5.678 16.577ZM1.831 6.932C2.23111 6.72033 2.64663 6.53915 3.074 6.39C3.402 6.27467 3.75067 6.16867 4.12 6.072C4.389 4.906 4.794 3.849 5.308 2.956C5.42467 2.754 5.548 2.55867 5.678 2.37C3.86053 3.34407 2.48424 4.97616 1.831 6.932ZM12.409 3.666C12.754 4.265 13.049 4.966 13.276 5.746C12.318 5.587 11.276 5.488 10.185 5.457V1.584C10.977 1.843 11.757 2.534 12.409 3.666ZM13.611 7.25C12.4811 7.03302 11.3352 6.90927 10.185 6.88V11.595C11.3587 11.5646 12.5278 11.4358 13.68 11.21C13.7493 10.6513 13.7843 10.0727 13.785 9.474C13.785 8.7 13.724 7.954 13.611 7.25ZM8.764 1.584V5.457C7.673 5.487 6.631 5.587 5.673 5.745C5.9 4.966 6.194 4.265 6.539 3.665C7.191 2.534 7.972 1.842 8.764 1.584ZM8.764 6.88C7.61343 6.90955 6.46724 7.03363 5.337 7.251C5.13043 8.56141 5.10721 9.89419 5.268 11.211C6.302 11.421 7.488 11.559 8.764 11.596V6.88ZM3.548 7.731C3.646 7.69567 3.74667 7.66167 3.85 7.629C3.72424 8.69184 3.70748 9.76475 3.8 10.831C3.714 10.803 3.63 10.7743 3.548 10.745C2.803 10.482 2.251 10.185 1.898 9.891C1.542 9.594 1.468 9.37 1.468 9.238C1.468 9.107 1.542 8.883 1.898 8.585C2.251 8.291 2.803 7.994 3.548 7.731ZM6.539 15.283C6.122 14.56 5.779 13.687 5.54 12.708C6.534 12.878 7.622 12.986 8.763 13.018V17.365C7.972 17.106 7.191 16.415 6.539 15.283ZM10.185 17.365V13.018C11.2653 12.9905 12.3423 12.8869 13.408 12.708C13.168 13.687 12.826 14.56 12.408 15.283C11.757 16.415 10.977 17.106 10.185 17.365ZM15.204 9.474C15.204 9.934 15.185 10.386 15.147 10.83C15.233 10.802 15.317 10.7733 15.399 10.744C16.144 10.481 16.696 10.184 17.049 9.89C17.405 9.593 17.479 9.369 17.479 9.237C17.479 9.106 17.405 8.882 17.049 8.584C16.696 8.29 16.144 7.993 15.399 7.73C15.2989 7.6944 15.1982 7.66039 15.097 7.628C15.1683 8.228 15.2043 8.84333 15.205 9.474" fill="black"/>
</svg>
