<svg width="20" height="20" viewBox="0 0 20 20" fill="none" xmlns="http://www.w3.org/2000/svg">
<path fill-rule="evenodd" clip-rule="evenodd" d="M9.974 19.448C12.4867 19.448 14.8964 18.4498 16.6731 16.6731C18.4498 14.8964 19.448 12.4867 19.448 9.974C19.448 7.46134 18.4498 5.05159 16.6731 3.27487C14.8964 1.49815 12.4867 0.5 9.974 0.5C7.46134 0.5 5.05159 1.49815 3.27487 3.27487C1.49815 5.05159 0.5 7.46134 0.5 9.974C0.5 12.4867 1.49815 14.8964 3.27487 16.6731C5.05159 18.4498 7.46134 19.448 9.974 19.448ZM13.77 2.87C13.9007 3.05867 14.024 3.254 14.14 3.456C14.654 4.349 15.06 5.406 15.329 6.572C15.6983 6.66867 16.0467 6.77467 16.374 6.89C16.824 7.05 17.244 7.23 17.617 7.432C16.9638 5.47616 15.5875 3.84407 13.77 2.87ZM17.783 11.95C17.369 12.19 16.893 12.401 16.373 12.584C16.0777 12.6887 15.765 12.7853 15.435 12.874C15.172 14.239 14.727 15.473 14.14 16.492C14.0252 16.6926 13.9017 16.8881 13.77 17.078C14.7585 16.5488 15.6259 15.8194 16.3168 14.9363C17.0078 14.0532 17.5071 13.0368 17.783 11.95ZM6.178 17.077C6.04626 16.8871 5.92281 16.6916 5.808 16.491C5.221 15.471 4.776 14.238 4.513 12.873C4.183 12.7843 3.87 12.6877 3.574 12.583C3.08616 12.415 2.61484 12.2025 2.166 11.948C2.44177 13.0347 2.94094 14.052 3.63171 14.9351C4.32247 15.8182 5.18967 16.5477 6.178 17.077ZM2.331 7.432C2.73111 7.22033 3.14663 7.03915 3.574 6.89C3.902 6.77467 4.25067 6.66867 4.62 6.572C4.889 5.406 5.294 4.349 5.808 3.456C5.92467 3.254 6.048 3.05867 6.178 2.87C4.36053 3.84407 2.98424 5.47616 2.331 7.432ZM12.909 4.166C13.254 4.765 13.549 5.466 13.776 6.246C12.818 6.087 11.776 5.988 10.685 5.957V2.084C11.477 2.343 12.257 3.034 12.909 4.166ZM14.111 7.75C12.9811 7.53302 11.8352 7.40927 10.685 7.38V12.095C11.8587 12.0646 13.0278 11.9358 14.18 11.71C14.2493 11.1513 14.2843 10.5727 14.285 9.974C14.285 9.2 14.224 8.454 14.111 7.75ZM9.264 2.084V5.957C8.173 5.987 7.131 6.087 6.173 6.245C6.4 5.466 6.694 4.765 7.039 4.165C7.691 3.034 8.472 2.342 9.264 2.084ZM9.264 7.38C8.11343 7.40955 6.96724 7.53363 5.837 7.751C5.63043 9.06141 5.60721 10.3942 5.768 11.711C6.802 11.921 7.988 12.059 9.264 12.096V7.38ZM4.048 8.231C4.146 8.19567 4.24667 8.16167 4.35 8.129C4.22424 9.19184 4.20748 10.2648 4.3 11.331C4.214 11.303 4.13 11.2743 4.048 11.245C3.303 10.982 2.751 10.685 2.398 10.391C2.042 10.094 1.968 9.87 1.968 9.738C1.968 9.607 2.042 9.383 2.398 9.085C2.751 8.791 3.303 8.494 4.048 8.231ZM7.039 15.783C6.622 15.06 6.279 14.187 6.04 13.208C7.034 13.378 8.122 13.486 9.263 13.518V17.865C8.472 17.606 7.691 16.915 7.039 15.783ZM10.685 17.865V13.518C11.7653 13.4905 12.8423 13.3869 13.908 13.208C13.668 14.187 13.326 15.06 12.908 15.783C12.257 16.915 11.477 17.606 10.685 17.865ZM15.704 9.974C15.704 10.434 15.685 10.886 15.647 11.33C15.733 11.302 15.817 11.2733 15.899 11.244C16.644 10.981 17.196 10.684 17.549 10.39C17.905 10.093 17.979 9.869 17.979 9.737C17.979 9.606 17.905 9.382 17.549 9.084C17.196 8.79 16.644 8.493 15.899 8.23C15.7989 8.1944 15.6982 8.16039 15.597 8.128C15.6683 8.728 15.7043 9.34333 15.705 9.974" fill="white"/>
</svg>
