<svg width="118" height="118" viewBox="0 0 118 118" fill="none" xmlns="http://www.w3.org/2000/svg">
<g clip-path="url(#clip0_598_3461)">
<path d="M60.5556 0H0V118H118V0H60.5556ZM3.11335 3.11118H57.4444V57.4422H3.11335V3.11118ZM57.4444 114.887H3.11335V60.5556H57.4444V114.887ZM114.887 114.887H60.5556V60.5556H114.887V114.887ZM60.5556 57.4422V3.11118H114.887V57.4422H60.5556Z" fill="white"/>
<path d="M25.9756 96.1849H25.835C25.4153 98.5713 23.0959 100.397 19.4092 100.397C13.6499 100.397 9.29248 96.0053 9.29248 87.7881C9.29248 79.571 13.6845 75.0383 20.2162 75.0383C24.5693 75.0383 27.7324 77.0396 29.4871 80.6225L25.729 82.8358C24.8506 80.7285 23.1305 79.1491 20.2162 79.1491C16.5988 79.1491 14.2102 81.4338 14.2102 85.7522V89.6856C14.2102 93.9716 16.5966 96.2887 20.2876 96.2887C23.1673 96.2887 25.5191 94.8824 25.5191 92.1087V90.5293H20.7074V86.6306H29.9782V99.9776H25.9734V96.1849H25.9756Z" fill="white"/>
<path d="M33.8444 90.7781C33.8444 84.982 36.9708 81.2261 42.3429 81.2261C48.0676 81.2261 50.7007 85.4385 50.7007 90.4623V91.9356H38.5134V92.3943C38.5134 95.0274 40.0257 96.8188 42.9725 96.8188C45.1858 96.8188 46.5185 95.7651 47.6436 94.3264L50.0689 97.0308C48.5566 99.1035 45.8889 100.404 42.4835 100.404C37.0725 100.404 33.8423 96.6457 33.8423 90.7803H33.8444V90.7781ZM38.5156 88.8807V89.162H46.0317V88.8483C46.0317 86.3212 44.7314 84.5969 42.4143 84.5969C40.0971 84.5969 38.5156 86.3537 38.5156 88.8829V88.8807Z" fill="white"/>
<path d="M84.9994 87.416L82.4724 82.323H82.3664V99.9906H77.9744V75.4775H83.0674L90.4429 88.0521L92.9699 93.1451H93.0759V75.4775H97.4679V99.9906H92.375L84.9994 87.416Z" fill="white"/>
<path d="M15.8416 42.5355H11.2051V18.0225H22.2673C26.7264 18.0225 29.5044 20.9735 29.5044 25.6079C29.5044 28.9808 27.9596 31.5446 24.9393 32.5615L29.9631 42.5376H24.7987L20.2336 33.0894H15.8416V42.5376V42.5355ZM21.8108 29.1885C23.6022 29.1885 24.6905 28.2041 24.6905 26.4149V24.8009C24.6905 23.0094 23.6022 22.0618 21.8108 22.0618H15.8394V29.1929H21.8108V29.1885Z" fill="white"/>
<path d="M32.4923 33.3338C32.4923 27.5377 35.6186 23.7817 40.9907 23.7817C46.7155 23.7817 49.3485 27.9942 49.3485 33.0179V34.4913H37.1612V34.95C37.1612 37.583 38.6735 39.3744 41.6203 39.3744C43.8336 39.3744 45.1664 38.3208 46.2914 36.882L48.7167 39.5865C47.2044 41.6591 44.5368 42.9594 41.1313 42.9594C35.7203 42.9594 32.4901 39.2014 32.4901 33.336H32.4923V33.3338ZM37.1634 31.4342V31.7155H44.6795V31.4018C44.6795 28.8747 43.3793 27.1504 41.0621 27.1504C38.7449 27.1504 37.1634 28.9072 37.1634 31.4364V31.4342Z" fill="white"/>
</g>
<defs>
<clipPath id="clip0_598_3461">
<rect width="118" height="118" fill="white"/>
</clipPath>
</defs>
</svg>
