<svg width="40" height="40" viewBox="0 0 40 40" fill="none" xmlns="http://www.w3.org/2000/svg">
<g clip-path="url(#clip0_468_3872)">
<path d="M20.5273 0H0V40H40V0H20.5273ZM1.05537 1.05464H19.4727V19.4719H1.05537V1.05464ZM19.4727 38.9446H1.05537V20.5273H19.4727V38.9446ZM38.9446 38.9446H20.5273V20.5273H38.9446V38.9446ZM20.5273 19.4719V1.05464H38.9446V19.4719H20.5273Z" fill="white"/>
<path d="M8.80532 32.6051H8.75765C8.61537 33.414 7.82916 34.033 6.57943 34.033C4.62711 34.033 3.15002 32.5442 3.15002 29.7587C3.15002 26.9733 4.63884 25.4368 6.85299 25.4368C8.32861 25.4368 9.40085 26.1152 9.99564 27.3297L8.72171 28.08C8.42395 27.3656 7.84089 26.8302 6.85299 26.8302C5.62674 26.8302 4.81706 27.6047 4.81706 29.0686V30.4019C4.81706 31.8548 5.62601 32.6403 6.8772 32.6403C7.85336 32.6403 8.65057 32.1636 8.65057 31.2233V30.688H7.01948V29.3664H10.1621V33.8907H8.80459V32.6051H8.80532Z" fill="white"/>
<path d="M11.4728 30.7724C11.4728 28.8076 12.5326 27.5344 14.3536 27.5344C16.2942 27.5344 17.1867 28.9624 17.1867 30.6653V31.1648H13.0555V31.3203C13.0555 32.2128 13.5681 32.8201 14.567 32.8201C15.3173 32.8201 15.7691 32.4629 16.1504 31.9752L16.9726 32.892C16.4599 33.5946 15.5557 34.0353 14.4013 34.0353C12.567 34.0353 11.472 32.7614 11.472 30.7731H11.4728V30.7724ZM13.0562 30.1292V30.2246H15.6041V30.1182C15.6041 29.2616 15.1633 28.6771 14.3778 28.6771C13.5923 28.6771 13.0562 29.2726 13.0562 30.13V30.1292Z" fill="white"/>
<path d="M28.8134 29.6326L27.9568 27.9062H27.9208V33.8952H26.432V25.5857H28.1584L30.6586 29.8483L31.5152 31.5747H31.5512V25.5857H33.04V33.8952H31.3136L28.8134 29.6326Z" fill="white"/>
<path d="M5.37003 14.4189H3.79834V6.10938H7.54825C9.0598 6.10938 10.0015 7.10974 10.0015 8.6807C10.0015 9.82408 9.47784 10.6932 8.45401 11.0379L10.157 14.4196H8.40633L6.85885 11.2168H5.37003V14.4196V14.4189ZM7.3935 9.89449C8.00076 9.89449 8.36966 9.56079 8.36966 8.95426V8.40714C8.36966 7.79988 8.00076 7.47864 7.3935 7.47864H5.3693V9.89595H7.3935V9.89449Z" fill="white"/>
<path d="M11.0143 11.2998C11.0143 9.33496 12.0741 8.06177 13.8951 8.06177C15.8357 8.06177 16.7283 9.48971 16.7283 11.1927V11.6921H12.597V11.8476C12.597 12.7402 13.1096 13.3474 14.1085 13.3474C14.8588 13.3474 15.3106 12.9903 15.692 12.5025L16.5141 13.4193C16.0014 14.1219 15.0972 14.5627 13.9428 14.5627C12.1085 14.5627 11.0135 13.2888 11.0135 11.3005H11.0143V11.2998ZM12.5977 10.6558V10.7512H15.1456V10.6448C15.1456 9.78821 14.7048 9.20368 13.9193 9.20368C13.1338 9.20368 12.5977 9.79921 12.5977 10.6566V10.6558Z" fill="white"/>
</g>
<defs>
<clipPath id="clip0_468_3872">
<rect width="40" height="40" fill="white"/>
</clipPath>
</defs>
</svg>
