<svg width="40" height="40" viewBox="0 0 40 40" fill="none" xmlns="http://www.w3.org/2000/svg">
<g clip-path="url(#clip0_118_229)">
<path d="M20.5268 0H0V40H40V0H20.5268ZM1.05504 1.05431H19.4725V19.4718H1.05504V1.05431ZM19.4732 38.945H1.05504V20.5275H19.4725V38.945H19.4732ZM38.945 38.945H20.5275V20.5275H38.945V38.945ZM20.5268 19.4718V1.05431H38.9442V19.4718H20.5268Z" fill="#1D1D1B"/>
<path d="M8.80516 32.6051H8.75763C8.61506 33.4145 7.82908 34.033 6.57956 34.033C4.62742 34.033 3.15051 32.5444 3.15051 29.7588C3.15051 26.9731 4.63912 25.437 6.85301 25.437C8.32845 25.437 9.40104 26.1155 9.99619 27.3299L8.72181 28.0801C8.42423 27.3658 7.84078 26.8306 6.85301 26.8306C5.62616 26.8306 4.81751 27.6048 4.81751 29.0693V30.4022C4.81751 31.855 5.62689 32.6409 6.87787 32.6409C7.85394 32.6409 8.65162 32.1642 8.65162 31.224V30.6881H7.02044V29.3662H10.1636V33.8905H8.80589V32.6051H8.80516Z" fill="black"/>
<path d="M11.4724 30.7722C11.4724 28.8076 12.5318 27.5339 14.3531 27.5339C16.2936 27.5339 17.1863 28.9619 17.1863 30.6654V31.1648H13.0546V31.3198C13.0546 32.2125 13.5671 32.8201 14.5666 32.8201C15.3167 32.8201 15.7686 32.4633 16.1502 31.9749L16.9721 32.8917C16.4595 33.5944 15.5551 34.0345 14.4006 34.0345C12.5669 34.0345 11.4709 32.7601 11.4709 30.7722H11.4717H11.4724ZM13.0561 30.1288V30.2238H15.6041V30.1171C15.6041 29.2602 15.1632 28.676 14.3772 28.676C13.5913 28.676 13.0553 29.2719 13.0553 30.1288H13.0561Z" fill="black"/>
<path d="M28.8136 29.6323L27.9567 27.9061H27.9209V33.8949H26.4323V25.5854H28.1585L30.659 29.848L31.5159 31.5742H31.5517V25.5854H33.0403V33.8949H31.3141L28.8136 29.6323Z" fill="black"/>
<path d="M5.36956 14.4188H3.79761V6.10938H7.54763C9.05963 6.10938 10.0006 7.10958 10.0006 8.6808C10.0006 9.82357 9.47638 10.6929 8.45278 11.038L10.1556 14.4195H8.40526L6.85743 11.2164H5.36883V14.4195L5.36956 14.4188ZM7.39409 9.89449C8.00167 9.89449 8.37016 9.56036 8.37016 8.95425V8.40735C8.37016 7.79977 8.00167 7.4788 7.39409 7.4788H5.37029V9.89596H7.39409V9.89449Z" fill="black"/>
<path d="M11.0139 11.299C11.0139 9.33444 12.0733 8.06079 13.8946 8.06079C15.8351 8.06079 16.7278 9.48871 16.7278 11.1923V11.6916H12.5961V11.8466C12.5961 12.7394 13.1086 13.3469 14.1081 13.3469C14.8583 13.3469 15.3101 12.9901 15.6918 12.5017L16.5136 13.4186C16.001 14.1212 15.0966 14.5614 13.9421 14.5614C12.1084 14.5614 11.0125 13.287 11.0125 11.299H11.0132H11.0139ZM12.5976 10.6563V10.7514H15.1456V10.6446C15.1456 9.78775 14.7047 9.20356 13.9187 9.20356C13.1328 9.20356 12.5968 9.79944 12.5968 10.6563H12.5976Z" fill="black"/>
</g>
<defs>
<clipPath id="clip0_118_229">
<rect width="40" height="40" fill="white"/>
</clipPath>
</defs>
</svg>
