<svg width="118" height="118" viewBox="0 0 118 118" fill="none" xmlns="http://www.w3.org/2000/svg">
<g clip-path="url(#clip0_598_3471)">
<path d="M60.554 0H0V118H118V0H60.554ZM3.11236 3.1102H57.4438V57.4417H3.11236V3.1102ZM57.446 114.888H3.11236V60.5562H57.4438V114.888H57.446ZM114.888 114.888H60.5562V60.5562H114.888V114.888ZM60.554 57.4417V3.1102H114.885V57.4417H60.554Z" fill="#1D1D1B"/>
<path d="M25.9751 96.1855H25.835C25.4144 98.5731 23.0957 100.398 19.4096 100.398C13.6508 100.398 9.29395 96.0064 9.29395 87.7888C9.29395 79.5711 13.6853 75.0396 20.2163 75.0396C24.5689 75.0396 27.733 77.0411 29.4887 80.6237L25.7293 82.8366C24.8514 80.7294 23.1302 79.1505 20.2163 79.1505C16.5971 79.1505 14.2116 81.4347 14.2116 85.7549V89.6868C14.2116 93.9725 16.5993 96.2912 20.2896 96.2912C23.1691 96.2912 25.5222 94.8849 25.5222 92.1111V90.5302H20.7102V86.6305H29.9826V99.9772H25.9773V96.1855H25.9751Z" fill="black"/>
<path d="M33.8434 90.7781C33.8434 84.9826 36.9687 81.2253 42.3415 81.2253C48.0658 81.2253 50.6993 85.4377 50.6993 90.4632V91.9363H38.5109V92.3936C38.5109 95.0271 40.0228 96.8195 42.9713 96.8195C45.1842 96.8195 46.5172 95.7669 47.6431 94.3261L50.0674 97.0309C48.5554 99.1036 45.8874 100.402 42.4817 100.402C37.0723 100.402 33.8391 96.6426 33.8391 90.7781H33.8413H33.8434ZM38.5152 88.8801V89.1605H46.0319V88.8456C46.0319 86.3177 44.7313 84.5944 42.4127 84.5944C40.094 84.5944 38.513 86.3522 38.513 88.8801H38.5152Z" fill="black"/>
<path d="M84.9999 87.4156L82.472 82.3232H82.3664V99.9901H77.975V75.4773H83.0673L90.4438 88.0518L92.9717 93.1442H93.0774V75.4773H97.4687V99.9901H92.3764L84.9999 87.4156Z" fill="black"/>
<path d="M15.84 42.5355H11.2028V18.0227H22.2653C26.7257 18.0227 29.5016 20.9733 29.5016 25.6084C29.5016 28.9796 27.9551 31.5441 24.9355 32.5621L29.9589 42.5376H24.7953L20.2292 33.0884H15.8379V42.5376L15.84 42.5355ZM21.8124 29.1888C23.6047 29.1888 24.6918 28.2031 24.6918 26.4151V24.8017C24.6918 23.0094 23.6047 22.0625 21.8124 22.0625H15.8422V29.1931H21.8124V29.1888Z" fill="black"/>
<path d="M32.491 33.3321C32.491 27.5366 35.6163 23.7793 40.9891 23.7793C46.7134 23.7793 49.3469 27.9917 49.3469 33.0172V34.4903H37.1585V34.9475C37.1585 37.5811 38.6704 39.3734 41.6189 39.3734C43.8318 39.3734 45.1648 38.3209 46.2906 36.8801L48.715 39.5848C47.203 41.6576 44.5349 42.956 41.1293 42.956C35.7198 42.956 32.4867 39.1966 32.4867 33.3321H32.4889H32.491ZM37.1628 31.4362V31.7166H44.6795V31.4017C44.6795 28.8738 43.3789 27.1505 41.0602 27.1505C38.7416 27.1505 37.1606 28.9083 37.1606 31.4362H37.1628Z" fill="black"/>
</g>
<defs>
<clipPath id="clip0_598_3471">
<rect width="118" height="118" fill="white"/>
</clipPath>
</defs>
</svg>
