<svg width="118" height="118" viewBox="0 0 118 118" fill="none" xmlns="http://www.w3.org/2000/svg">
<g clip-path="url(#clip0_576_3348)">
<path d="M60.5699 2H1.99976V116.131H116.131V2H60.5699ZM5.01103 5.00918H57.5607V57.5589H5.01103V5.00918ZM57.5607 113.12H5.01103V60.5702H57.5607V113.12ZM113.12 113.12H60.5699V60.5702H113.12V113.12ZM60.5699 57.5589V5.00918H113.12V57.5589H60.5699Z" fill="white"/>
<path d="M27.1237 95.0313H26.9877C26.5817 97.3395 24.3384 99.1057 20.7726 99.1057C15.2021 99.1057 10.9875 94.8576 10.9875 86.9099C10.9875 78.9622 15.2356 74.5781 21.5532 74.5781C25.7635 74.5781 28.8229 76.5138 30.52 79.9792L26.8851 82.1199C26.0355 80.0817 24.3719 78.5541 21.5532 78.5541C18.0543 78.5541 15.7441 80.7639 15.7441 84.9408V88.7451C15.7441 92.8906 18.0522 95.1318 21.6222 95.1318C24.4075 95.1318 26.6822 93.7716 26.6822 91.0889V89.5612H22.0282V85.7904H30.995V98.6997H27.1216V95.0313H27.1237Z" fill="white"/>
<path d="M34.7345 89.8019C34.7345 84.1958 37.7583 80.563 42.9543 80.563C48.4914 80.563 51.0381 84.6373 51.0381 89.4964V90.9214H39.2504V91.3651C39.2504 93.9118 40.7131 95.6445 43.5632 95.6445C45.704 95.6445 46.993 94.6254 48.0812 93.2338L50.427 95.8495C48.9643 97.8543 46.3841 99.1119 43.0903 99.1119C37.8567 99.1119 34.7324 95.477 34.7324 89.804H34.7345V89.8019ZM39.2525 87.9667V88.2387H46.5222V87.9353C46.5222 85.4911 45.2645 83.8233 43.0234 83.8233C40.7822 83.8233 39.2525 85.5225 39.2525 87.9688V87.9667Z" fill="white"/>
<path d="M84.2122 86.55L81.768 81.624H81.6655V98.7122H77.4175V75.0029H82.3435L89.4772 87.1652L91.9214 92.0912H92.0239V75.0029H96.2719V98.7122H91.3459L84.2122 86.55Z" fill="white"/>
<path d="M17.3219 43.1407H12.8374V19.4314H23.5369C27.8498 19.4314 30.5367 22.2857 30.5367 26.7681C30.5367 30.0305 29.0426 32.5102 26.1213 33.4938L30.9804 43.1428H25.9853L21.5699 34.0044H17.3219V43.1428V43.1407ZM23.0954 30.2314C24.8281 30.2314 25.8807 29.2792 25.8807 27.5486V25.9876C25.8807 24.2549 24.8281 23.3383 23.0954 23.3383H17.3198V30.2356H23.0954V30.2314Z" fill="white"/>
<path d="M33.4267 34.2408C33.4267 28.6347 36.4505 25.002 41.6464 25.002C47.1835 25.002 49.7302 29.0763 49.7302 33.9353V35.3604H37.9425V35.804C37.9425 38.3507 39.4052 40.0834 42.2554 40.0834C44.3961 40.0834 45.6852 39.0643 46.7733 37.6727L49.1192 40.2885C47.6564 42.2932 45.0762 43.5509 41.7825 43.5509C36.5488 43.5509 33.4246 39.916 33.4246 34.2429H33.4267V34.2408ZM37.9446 32.4035V32.6756H45.2143V32.3721C45.2143 29.928 43.9567 28.2602 41.7155 28.2602C39.4743 28.2602 37.9446 29.9594 37.9446 32.4056V32.4035Z" fill="white"/>
</g>
<defs>
<clipPath id="clip0_576_3348">
<rect width="114.131" height="114.131" fill="white" transform="translate(1.99976 2)"/>
</clipPath>
</defs>
</svg>
